HIERARCHY
ROOT pelvis
{
  OFFSET 0 100 0
  CHANNELS 6 Xposition Yposition Zposition Zrotation Xrotation Yrotation
  JOINT pelvis_right_femur
  {
    OFFSET -10.78128 -3.44521 -0.5502486
    CHANNELS 3 Zrotation Xrotation Yrotation
    JOINT right_femur_tibia
    {
      OFFSET -0.8047443 -44.0398 -0.1307829
      CHANNELS 3 Zrotation Xrotation Yrotation
      JOINT right_tibia_foot
      {
        OFFSET 3.006224 -47.83518 -5
        CHANNELS 3 Zrotation Xrotation Yrotation
        End Site
        {
          OFFSET 0 -5 15
        }
      }
    }
  }
  JOINT pelvis_left_femur
  {
    OFFSET 10.78128 -3.44521 -0.5502486
    CHANNELS 3 Zrotation Xrotation Yrotation
    JOINT left_femur_tibia
    {
      OFFSET 0.8047443 -44.0398 -0.1307829
      CHANNELS 3 Zrotation Xrotation Yrotation
      JOINT left_tibia_foot
      {
        OFFSET -4.370144 -48.10324 -4.275266
        CHANNELS 3 Zrotation Xrotation Yrotation
        End Site
        {
          OFFSET 0 -5 15
        }
      }
    }
  }
  JOINT pelvis_spine1
  {
    OFFSET 0 6.468898 -3.129235
    CHANNELS 3 Zrotation Xrotation Yrotation
    JOINT spine1
    {
      OFFSET 0 23.15396 4.99043
      CHANNELS 3 Zrotation Xrotation Yrotation
      JOINT spine2
      {
        OFFSET 0 20.79997 -5.064912
        CHANNELS 3 Zrotation Xrotation Yrotation
        JOINT neck
        {
          OFFSET 0 14.38658 9.616178
          CHANNELS 3 Zrotation Xrotation Yrotation
          End Site
          {
            OFFSET 0 20 0
          }
        }
      }
      JOINT right_manubrium
      {
        OFFSET -5.722621 16.35077 3.967754
        CHANNELS 3 Zrotation Xrotation Yrotation
        JOINT right_clavicle
        {
          OFFSET -13.16364 1.694482 -4.693211
          CHANNELS 3 Zrotation Xrotation Yrotation
          JOINT right_humerus
          {
            OFFSET -28.5034 -0.3100689 -2.792744
            CHANNELS 3 Zrotation Xrotation Yrotation
            JOINT right_radius
            {
              OFFSET -25.15693 0.02248979 -1.271978
              CHANNELS 3 Zrotation Xrotation Yrotation
              End Site
              {
                OFFSET -15 0 0
              }
            }
          }
        }
      }
      JOINT left_manubrium
      {
        OFFSET 5.722621 16.35077 3.967754
        CHANNELS 3 Zrotation Xrotation Yrotation
        JOINT left_clavicle
        {
          OFFSET 13.16364 1.694482 -4.693211
          CHANNELS 3 Zrotation Xrotation Yrotation
          JOINT left_humerus
          {
            OFFSET 29.39168 -1.063119 -2.237045
            CHANNELS 3 Zrotation Xrotation Yrotation
            JOINT left_radius
            {
              OFFSET 24.59957 -0.9528479 0.9047498
              CHANNELS 3 Zrotation Xrotation Yrotation
              End Site
              {
                OFFSET 15 -0 -0
              }
            }
          }
        }
      }
    }
  }
}
MOTION
Frames: 21
Frame Time: 0.0416666666667
0 103.5113 0 2.175657 -1.193704 0.2829778 1.263122 -10.10013 8.741218 -0 34.65009 -0 -5.267142 -17.96862 -2.406432 -8.02998 10.08897 -23.50774 -0 5.13322 -0 7.67872 -16.16113 26.58004 -4.330948 -5.048832 4.945337 2.008162 9.222102 -7.75078 0.8339784 22.81208 7.18331 3.254084 -23.10517 8.819071 6.373791 -19.76448 11.57743 86.31363 35.94835 -19.78683 -0 0 16.26462 -7.58137 8.244375 4.621114 5.491426 -19.49252 -1.687257 -94.77441 29.7383 22.93302 0 0 -16.0057 3.520569 17.87677 9.548615
0.3335594 103.4562 1.370602 2.02529 -1.043746 0.4532644 1.540142 -11.13284 8.595087 -0 34.15555 -0 -5.285636 -17.51328 -2.392222 -7.890337 10.21653 -23.37268 -0 5.173389 -0 7.525918 -16.46996 26.3899 -4.274585 -4.848013 4.89849 2.104386 9.203254 -7.774721 0.8497261 22.68066 7.21687 3.286259 -23.25039 8.857054 6.354251 -19.69822 11.58419 86.30729 35.93305 -19.85697 -0 0 16.14216 -7.625976 8.281923 4.640601 5.593196 -19.5475 -1.678266 -94.66049 29.67523 22.74244 0 0 -16.40597 3.630738 17.74523 9.478943
0.6968089 103.3175 2.883719 1.847466 -0.762674 0.5008901 1.849504 -12.62933 8.23868 -0 32.15735 -0 -5.254411 -16.64448 -2.050562 -7.741748 10.38704 -23.11168 -0 5.265374 -0 7.26737 -16.96849 26.04702 -4.255728 -4.565779 4.904453 2.305913 9.164127 -7.770668 0.880283 22.43078 7.254129 3.345259 -23.46811 8.887694 6.305077 -19.54453 11.60152 86.31029 35.91452 -20.0322 -0 0 15.86728 -7.687141 8.343851 4.649389 5.83928 -19.6254 -1.671894 -94.48206 29.5768 22.33346 0 0 -17.19908 3.817147 17.56873 9.320394
1.113788 103.031 4.62016 1.702022 -0.3287416 0.4441267 2.089723 -14.40964 7.632532 -0 28.22159 -0 -5.156905 -15.28364 -1.32481 -7.678117 10.60953 -22.69245 -0 5.480887 -0 6.896098 -17.6552 25.51222 -4.313054 -4.245512 5.001636 2.584248 9.103253 -7.693525 0.95756 22.07609 7.271986 3.442645 -23.73582 8.911594 6.200278 -19.26035 11.62436 86.35436 35.8907 -20.35059 -0 0 15.41225 -7.765679 8.433236 4.645569 6.232202 -19.77462 -1.663736 -94.20803 29.46614 21.6609 0 0 -18.40015 4.046493 17.35391 9.052234
1.600729 102.5548 6.644225 1.649392 0.2212305 0.3490348 2.163579 -16.21239 6.812545 -0 22.56027 -0 -5.02027 -13.52788 -0.3114432 -7.746876 10.91355 -22.10661 -0 5.909431 -0 6.391436 -18.44833 24.74056 -4.436263 -3.96089 5.162396 2.857331 9.033317 -7.546293 1.063419 21.71167 7.273069 3.562713 -23.99161 8.926549 6.026314 -18.88576 11.61261 86.4653 35.86145 -20.77489 -0 0 14.81663 -7.863519 8.55143 4.643904 6.718986 -20.01441 -1.623036 -93.82728 29.35649 20.78777 0 0 -19.82791 4.266382 17.09941 8.72666
2.155174 101.8925 9.009925 1.701089 0.8314477 0.3032568 2.054814 -17.76091 5.859882 -0 15.85975 -0 -4.902543 -11.62238 0.8338399 -7.928738 11.32763 -21.3544 -0 6.661541 -0 5.712515 -19.21876 23.69284 -4.569168 -3.772086 5.308428 3.051143 8.967606 -7.386392 1.146795 21.43519 7.2799 3.675533 -24.17024 8.924884 5.795185 -18.47966 11.52568 86.67577 35.82934 -21.25525 -0 0 14.13028 -7.978227 8.702034 4.661674 7.208256 -20.3289 -1.538696 -93.35352 29.24844 19.83279 0 0 -21.20946 4.429726 16.80273 8.435031
2.742603 101.1056 11.79622 1.765867 1.464676 0.4197228 1.907339 -18.79259 4.900333 -0 9.253581 -0 -4.890648 -9.939565 1.95287 -8.116329 11.85073 -20.43358 -0 7.903172 -0 4.790186 -19.80023 22.34876 -4.607447 -3.685336 5.330325 3.156921 8.905024 -7.324767 1.153852 21.26571 7.322824 3.754302 -24.2434 8.896604 5.557319 -18.04804 11.36346 87.03796 35.79932 -21.79463 -0 0 13.36012 -8.10061 8.894938 4.706559 7.569032 -20.66845 -1.470418 -92.83341 29.13309 18.93026 0 0 -22.26639 4.509572 16.46535 8.272465
3.330953 100.3121 15.08878 1.729137 2.077404 0.8034651 1.865808 -19.03091 4.098964 -0 3.961197 -0 -5.067682 -8.72572 2.894592 -8.154961 12.39828 -19.36387 -0 9.893197 -0 3.536337 -19.92268 20.69047 -4.437927 -3.707385 5.184786 3.208796 8.829398 -7.41973 1.082114 21.17066 7.39985 3.790856 -24.23347 8.840529 5.364758 -17.59597 11.16324 87.53768 35.77619 -22.38426 -0 0 12.51671 -8.242453 9.136286 4.788271 7.678184 -20.95466 -1.476347 -92.35359 29.00072 18.2289 0 0 -22.79544 4.486315 16.0896 8.290367
3.904197 99.67038 18.9489 1.511507 2.63676 1.486019 1.998265 -18.23105 3.574937 -0 0.8178643 -0 -5.479891 -8.04629 3.540631 -7.931649 12.8103 -18.19179 -0 12.93299 -0 1.896631 -19.22921 18.73137 -3.982038 -3.856057 4.886463 3.234828 8.735329 -7.668021 0.9437125 21.10911 7.491126 3.779861 -24.16301 8.747206 5.243037 -17.13563 10.97209 88.12751 35.76395 -22.99031 -0 0 11.62602 -8.426805 9.4277 4.918089 7.470258 -21.09943 -1.588503 -92.01421 28.84327 17.86271 0 0 -22.68853 4.345753 15.67524 8.503643
4.45882 99.35106 23.37784 1.110036 3.093338 2.341461 2.270173 -16.22378 3.3528 0 -0.04494909 0 -6.113638 -7.821398 3.840269 -7.449737 12.82633 -16.987 -0 17.38858 -0 -0.09503372 -17.2925 16.55707 -3.22659 -4.140467 4.516483 3.228577 8.65251 -7.991208 0.7388501 21.06275 7.570011 3.707957 -24.0159 8.586427 5.179314 -16.68634 10.83955 88.74711 35.76678 -23.54155 -0 0 10.74132 -8.682842 9.767003 5.11066 6.967409 -21.02265 -1.798645 -91.90941 28.65228 17.92717 0 0 -21.94992 4.080659 15.22043 8.895601
5.009982 99.47012 28.31175 0.6543264 3.205205 3.090883 2.633029 -13.10991 3.387838 -0 0.451121 -0 -6.835033 -8.12285 3.932166 -6.940171 12.09485 -15.80412 -0 23.67201 -0 -2.203391 -13.91351 14.38145 -2.283155 -4.452822 4.284986 3.149113 8.668618 -8.193271 0.4656082 21.08902 7.612334 3.566682 -23.71998 8.32764 5.143042 -16.27973 10.8279 89.30908 35.79083 -23.9106 -0 0 9.968498 -9.044895 10.14712 5.391323 6.276376 -20.74043 -2.040278 -92.04665 28.42573 18.39245 0 0 -20.75355 3.706835 14.7392 9.405681
5.573717 100.0604 33.60615 0.3624384 2.785098 3.451474 2.928294 -8.942176 3.539217 -0 1.243325 -0 -7.485446 -9.05168 3.987701 -6.590289 10.22246 -14.65977 -0 31.82388 -0 -4.052315 -9.450465 12.52582 -1.389554 -4.651667 4.406326 2.972726 8.855053 -8.10328 0.1521149 21.25854 7.590501 3.375142 -23.23666 7.958468 5.152583 -15.96317 10.98719 89.71204 35.84871 -23.96467 -0 0 9.397052 -9.547879 10.55907 5.781565 5.510341 -20.3419 -2.255983 -92.35478 28.16561 19.14392 0 0 -19.33886 3.257737 14.25432 9.958528
6.151107 101.0438 39.02847 0.4658981 1.794059 3.343596 2.891219 -3.663939 3.61561 -0 1.506618 -0 -7.916697 -10.6198 4.14644 -6.431759 6.812141 -13.54073 -0 41.24946 -0 -5.279558 -4.868036 11.29986 -0.8705488 -4.61778 5.021655 2.702322 9.227173 -7.64692 -0.1343763 21.62109 7.469523 3.181969 -22.58092 7.486869 5.262672 -15.81278 11.32641 89.82601 35.95721 -23.56959 -0 0 9.098682 -10.23857 10.98922 6.300349 4.768806 -19.95129 -2.414711 -92.71157 27.87416 20.02453 0 0 -17.96521 2.782585 13.79138 10.47288
6.741346 102.2696 44.35265 1.055825 0.3720737 2.99816 2.326689 2.529272 3.549186 -0 0.8905429 -0 -8.030751 -12.53603 4.472021 -6.323012 1.730911 -12.42508 -0 50.33875 -0 -5.816466 -1.316712 10.82918 -0.9038663 -4.343782 6.044621 2.345625 9.696192 -6.938867 -0.3160791 22.15939 7.221876 3.037229 -21.77749 6.941122 5.416529 -15.94648 11.73545 89.47396 36.11841 -22.59612 -0 0 9.186984 -11.19613 11.40528 6.976463 4.154195 -19.62789 -2.478035 -93.02572 27.53777 20.92302 0 0 -16.84459 2.343336 13.3641 10.87164
7.348812 103.5775 49.45082 2.053537 -1.243798 2.683615 1.260469 9.230672 3.423599 0 -0.5699001 0 -7.788624 -14.47695 4.967034 -6.170052 -4.740884 -11.38706 -0 57.36038 -0 -5.731876 0.6400786 11.01511 -1.455076 -3.921133 7.286349 1.902058 10.15604 -6.108016 -0.3751548 22.81528 6.865062 2.951734 -20.86747 6.363835 5.506044 -16.41058 12.0958 88.59192 36.29847 -21.00472 -0 0 9.749341 -12.4709 11.77303 7.824055 3.765919 -19.37449 -2.405923 -93.24983 27.15492 21.79239 0 0 -16.05594 1.972628 12.97548 11.13592
7.978338 104.812 54.33 3.244327 -2.759714 2.483625 -0.1059233 15.91101 3.362051 0 -2.589211 0 -7.207992 -16.21757 5.583836 -5.921517 -11.96226 -10.48919 -0 60.7844 -0 -5.170572 1.113026 11.71493 -2.316851 -3.49718 8.511003 1.376897 10.50879 -5.262544 -0.3506581 23.49496 6.458993 2.900094 -19.91415 5.809633 5.411777 -17.17663 12.31968 87.22358 36.43325 -18.83922 -0 0 10.84078 -14.07391 12.06204 8.842582 3.672842 -19.14622 -2.186282 -93.38425 26.74093 22.6389 0 0 -15.54797 1.662474 12.61863 11.3035
8.658582 105.7128 59.07866 4.296439 -3.894452 2.399007 -1.434273 22.05622 3.39284 0 -4.727878 0 -6.375051 -17.76908 6.232572 -5.330328 -19.00674 -9.45809 -0 59.73348 -0 -4.481795 0.8727277 12.9899 -3.165868 -3.224587 9.473402 0.8204925 10.67739 -4.519118 -0.3054211 24.05421 6.08586 2.841797 -19.01006 5.340815 5.061641 -18.16856 12.38522 85.46059 36.44986 -16.21077 -0 0 12.4737 -15.96393 12.25121 10.01919 3.827536 -18.84655 -1.905307 -93.50071 26.32417 23.51021 0 0 -15.14148 1.352294 12.2756 11.453
9.433124 106.0514 63.79285 4.936146 -4.549199 2.356733 -2.396738 27.36617 3.438435 0 -6.552296 0 -5.38832 -19.23687 6.839541 -4.206786 -25.13998 -8.025048 -0 54.34117 -0 -3.899325 0.5849344 14.80199 -3.737295 -3.148291 10.07446 0.3038972 10.65638 -3.931214 -0.2858737 24.37886 5.806057 2.752958 -18.22307 4.99366 4.503859 -19.27237 12.33151 83.47587 36.29678 -13.31579 -0 0 14.52937 -18.02926 12.33252 11.29192 4.105589 -18.44297 -1.647112 -93.64294 25.92598 24.40513 0 0 -14.66956 0.9994738 11.93136 11.65577
10.33225 105.7464 68.53482 5.033346 -4.778935 2.266692 -2.792821 31.73418 3.390902 0 -7.688564 0 -4.32603 -20.69309 7.36242 -2.567922 -29.92186 -6.12348 -0 45.57546 -0 -3.482301 0.5517572 16.90327 -3.9067 -3.230073 10.33529 -0.1106101 10.49292 -3.51382 -0.3062255 24.41894 5.646376 2.634297 -17.59477 4.78069 3.863168 -20.37405 12.21933 81.47624 35.95919 -10.39834 -0 0 16.79271 -20.12513 12.31386 12.5638 4.36128 -17.9627 -1.474088 -93.8152 25.56231 25.28339 0 0 -14.00935 0.5895052 11.57687 11.96082
11.36805 104.9032 73.36363 4.727183 -4.743476 2.135354 -2.772061 35.22645 3.257203 0 -7.855021 0 -3.220588 -22.03591 7.799633 -0.8234696 -33.3066 -4.104033 -0 35.27807 -0 -3.066929 0.5443159 18.7625 -3.787787 -3.380885 10.36392 -0.4003089 10.26486 -3.276311 -0.3290135 24.22975 5.58624 2.520402 -17.14317 4.694267 3.286748 -21.40088 12.08662 79.64234 35.46465 -7.713118 -0 0 18.98703 -22.11472 12.22181 13.72275 4.474061 -17.46798 -1.426106 -93.98896 25.24896 26.09323 0 0 -13.09683 0.1341129 11.21082 12.38158
12.55568 103.7932 78.37197 4.308388 -4.601281 1.898644 -2.792042 37.94851 3.256296 0 -6.793245 0 -2.069495 -22.93905 8.181418 0.3561365 -35.40204 -2.722959 -0 25.6218 -0 -2.505742 0.2473774 19.95833 -3.635677 -3.554224 10.35459 -0.5940763 10.03579 -3.153799 -0.2927284 23.91696 5.58019 2.461174 -16.85142 4.712582 2.888362 -22.28993 11.94799 78.11598 34.86839 -5.499823 -0 0 20.85742 -23.90249 12.10641 14.68776 4.383379 -17.01537 -1.48612 -94.13859 24.99405 26.79555 0 0 -11.94103 -0.3518639 10.83442 12.90545
